<svg width="20" height="20" viewBox="0 0 20 20" fill="none" xmlns="http://www.w3.org/2000/svg">
<path d="M15.1894 8.74999C15.7127 9.39269 16.0274 10.2565 16.0274 11.3584C16.0274 12.3885 15.7524 13.2105 15.2889 13.8383C15.1208 14.0661 15.1562 14.5969 15.2906 14.8461C15.6121 15.4424 15.0046 16.0958 14.3443 15.9444C13.85 15.8311 13.3315 15.6778 12.8778 15.4722C12.7117 15.3969 12.5283 15.3665 12.3471 15.387C12.1219 15.4125 11.8922 15.425 11.6595 15.425C10.5797 15.425 9.56229 15.1538 8.78151 14.5833M12.6942 8.02502C12.6942 10.8296 10.6554 12.0917 8.32624 12.0917C8.09357 12.0917 7.86379 12.0791 7.63865 12.0536C7.45742 12.0331 7.27401 12.0635 7.10789 12.1388C6.65418 12.3445 6.13573 12.4978 5.64146 12.6111C4.98113 12.7625 4.37362 12.109 4.69515 11.5127C4.82951 11.2636 4.86493 10.7327 4.69681 10.505C4.23336 9.87717 3.95831 9.05515 3.95831 8.02502C3.95831 5.22041 5.99709 3.95833 8.32624 3.95833C10.6554 3.95833 12.6942 5.22041 12.6942 8.02502Z" stroke="#ADA9BB" stroke-width="1.5" stroke-linecap="round" stroke-linejoin="round"/>
</svg>
