<svg width="20" height="20" viewBox="0 0 20 20" fill="none" xmlns="http://www.w3.org/2000/svg">
<path d="M8.33333 8.33332C10.1743 8.33332 11.6667 6.84094 11.6667 4.99999C11.6667 3.15904 10.1743 1.66666 8.33333 1.66666C6.49238 1.66666 5 3.15904 5 4.99999C5 6.84094 6.49238 8.33332 8.33333 8.33332Z" stroke="#ADA9BB" stroke-width="1.5"/>
<path d="M8.33333 17.5C11.555 17.5 14.1667 16.0076 14.1667 14.1666C14.1667 12.3257 11.555 10.8333 8.33333 10.8333C5.11167 10.8333 2.5 12.3257 2.5 14.1666C2.5 16.0076 5.11167 17.5 8.33333 17.5Z" stroke="#ADA9BB" stroke-width="1.5"/>
<path d="M15.8334 1.66666C15.8334 1.66666 17.5 2.66666 17.5 4.99999C17.5 7.33332 15.8334 8.33332 15.8334 8.33332M14.1667 3.33332C14.1667 3.33332 15 3.83332 15 4.99999C15 6.16666 14.1667 6.66666 14.1667 6.66666" stroke="#ADA9BB" stroke-width="1.5" stroke-linecap="round"/>
</svg>
