<svg width="25" height="24" viewBox="0 0 25 24" fill="none" xmlns="http://www.w3.org/2000/svg">
<path d="M2.29993 12C2.29993 8.229 2.29993 6.343 3.47193 5.172C4.64393 4.001 6.52893 4 10.2999 4H14.2999C18.0709 4 19.9569 4 21.1279 5.172C22.2989 6.344 22.2999 8.229 22.2999 12V14C22.2999 17.771 22.2999 19.657 21.1279 20.828C19.9559 21.999 18.0709 22 14.2999 22H10.2999C6.52893 22 4.64293 22 3.47193 20.828C2.30093 19.656 2.29993 17.771 2.29993 14V12Z" stroke="#FCF7FF" stroke-width="1.5"/>
<path d="M7.29993 4V2.5M17.2999 4V2.5M2.79993 9H21.7999" stroke="#FCF7FF" stroke-width="1.5" stroke-linecap="round"/>
<path d="M17.7999 17C17.7999 17.1326 17.7472 17.2598 17.6535 17.3536C17.5597 17.4473 17.4325 17.5 17.2999 17.5C17.1673 17.5 17.0401 17.4473 16.9464 17.3536C16.8526 17.2598 16.7999 17.1326 16.7999 17C16.7999 16.8674 16.8526 16.7402 16.9464 16.6464C17.0401 16.5527 17.1673 16.5 17.2999 16.5C17.4325 16.5 17.5597 16.5527 17.6535 16.6464C17.7472 16.7402 17.7999 16.8674 17.7999 17ZM17.7999 13C17.7999 13.1326 17.7472 13.2598 17.6535 13.3536C17.5597 13.4473 17.4325 13.5 17.2999 13.5C17.1673 13.5 17.0401 13.4473 16.9464 13.3536C16.8526 13.2598 16.7999 13.1326 16.7999 13C16.7999 12.8674 16.8526 12.7402 16.9464 12.6464C17.0401 12.5527 17.1673 12.5 17.2999 12.5C17.4325 12.5 17.5597 12.5527 17.6535 12.6464C17.7472 12.7402 17.7999 12.8674 17.7999 13ZM12.7999 17C12.7999 17.1326 12.7472 17.2598 12.6535 17.3536C12.5597 17.4473 12.4325 17.5 12.2999 17.5C12.1673 17.5 12.0401 17.4473 11.9464 17.3536C11.8526 17.2598 11.7999 17.1326 11.7999 17C11.7999 16.8674 11.8526 16.7402 11.9464 16.6464C12.0401 16.5527 12.1673 16.5 12.2999 16.5C12.4325 16.5 12.5597 16.5527 12.6535 16.6464C12.7472 16.7402 12.7999 16.8674 12.7999 17ZM12.7999 13C12.7999 13.1326 12.7472 13.2598 12.6535 13.3536C12.5597 13.4473 12.4325 13.5 12.2999 13.5C12.1673 13.5 12.0401 13.4473 11.9464 13.3536C11.8526 13.2598 11.7999 13.1326 11.7999 13C11.7999 12.8674 11.8526 12.7402 11.9464 12.6464C12.0401 12.5527 12.1673 12.5 12.2999 12.5C12.4325 12.5 12.5597 12.5527 12.6535 12.6464C12.7472 12.7402 12.7999 12.8674 12.7999 13ZM7.79993 17C7.79993 17.1326 7.74725 17.2598 7.65348 17.3536C7.55971 17.4473 7.43254 17.5 7.29993 17.5C7.16732 17.5 7.04014 17.4473 6.94637 17.3536C6.85261 17.2598 6.79993 17.1326 6.79993 17C6.79993 16.8674 6.85261 16.7402 6.94637 16.6464C7.04014 16.5527 7.16732 16.5 7.29993 16.5C7.43254 16.5 7.55971 16.5527 7.65348 16.6464C7.74725 16.7402 7.79993 16.8674 7.79993 17ZM7.79993 13C7.79993 13.1326 7.74725 13.2598 7.65348 13.3536C7.55971 13.4473 7.43253 13.5 7.29993 13.5C7.16732 13.5 7.04014 13.4473 6.94637 13.3536C6.85261 13.2598 6.79993 13.1326 6.79993 13C6.79993 12.8674 6.85261 12.7402 6.94637 12.6464C7.04014 12.5527 7.16732 12.5 7.29993 12.5C7.43253 12.5 7.55971 12.5527 7.65348 12.6464C7.74725 12.7402 7.79993 12.8674 7.79993 13Z" fill="#FCF7FF" stroke="#FCF7FF"/>
</svg>
