<svg width="25" height="24" viewBox="0 0 25 24" fill="none" xmlns="http://www.w3.org/2000/svg">
<path d="M10.5 10C12.7091 10 14.5 8.20914 14.5 6C14.5 3.79086 12.7091 2 10.5 2C8.29086 2 6.5 3.79086 6.5 6C6.5 8.20914 8.29086 10 10.5 10Z" stroke="#FCF7FF" stroke-width="1.5"/>
<path d="M10.5 21C14.366 21 17.5 19.2091 17.5 17C17.5 14.7909 14.366 13 10.5 13C6.63401 13 3.5 14.7909 3.5 17C3.5 19.2091 6.63401 21 10.5 21Z" stroke="#FCF7FF" stroke-width="1.5"/>
<path d="M19.5 2C19.5 2 21.5 3.2 21.5 6C21.5 8.8 19.5 10 19.5 10M17.5 4C17.5 4 18.5 4.6 18.5 6C18.5 7.4 17.5 8 17.5 8" stroke="#FCF7FF" stroke-width="1.5" stroke-linecap="round"/>
</svg>
