<svg width="25" height="24" viewBox="0 0 25 24" fill="none" xmlns="http://www.w3.org/2000/svg">
<path d="M3.69995 10C3.69995 6.229 3.69995 4.343 4.87195 3.172C6.04395 2.001 7.92895 2 11.7 2H13.7C17.471 2 19.357 2 20.528 3.172C21.699 4.344 21.7 6.229 21.7 10V14C21.7 17.771 21.7 19.657 20.528 20.828C19.356 21.999 17.471 22 13.7 22H11.7C7.92895 22 6.04295 22 4.87195 20.828C3.70095 19.656 3.69995 17.771 3.69995 14V10Z" stroke="#FCF7FF" stroke-width="1.5"/>
<path d="M8.69995 10H16.7M8.69995 14H13.7" stroke="#FCF7FF" stroke-width="1.5" stroke-linecap="round"/>
</svg>
